HIERARCHY
ROOT root
{
	OFFSET 0.000000 0.000000 0.000000
	CHANNELS 6 Xposition Yposition Zposition Zrotation Yrotation Xrotation
	JOINT lhip
	{
		OFFSET 0.058581 -0.082280 -0.017664
		CHANNELS 3 Zrotation Yrotation Xrotation
		JOINT lknee
		{
			OFFSET 0.043451 -0.386469 0.008037
			CHANNELS 3 Zrotation Yrotation Xrotation
			JOINT lankle
			{
				OFFSET -0.014790 -0.426874 -0.037428
				CHANNELS 3 Zrotation Yrotation Xrotation
				JOINT ltoe
				{
					OFFSET 0.041054 -0.060286 0.122042
					CHANNELS 3 Zrotation Yrotation Xrotation
					End Site
					{
						OFFSET 0.000000 0.000000 0.000000
					}
				}
			}
		}
	}
	JOINT rhip
	{
		OFFSET -0.060310 -0.090513 -0.013543
		CHANNELS 3 Zrotation Yrotation Xrotation
		JOINT rknee
		{
			OFFSET -0.043257 -0.383688 -0.004843
			CHANNELS 3 Zrotation Yrotation Xrotation
			JOINT rankle
			{
				OFFSET 0.019056 -0.420046 -0.034562
				CHANNELS 3 Zrotation Yrotation Xrotation
				JOINT rtoe
				{
					OFFSET -0.034840 -0.062106 0.130323
					CHANNELS 3 Zrotation Yrotation Xrotation
					End Site
					{
						OFFSET 0.000000 0.000000 0.000000
					}
				}
			}
		}
	}
	JOINT lowerback
	{
		OFFSET 0.004439 0.124404 -0.038385
		CHANNELS 3 Zrotation Yrotation Xrotation
		JOINT upperback
		{
			OFFSET 0.004488 0.137956 0.026820
			CHANNELS 3 Zrotation Yrotation Xrotation
			JOINT chest
			{
				OFFSET -0.002265 0.056032 0.002855
				CHANNELS 3 Zrotation Yrotation Xrotation
				JOINT lowerneck
				{
					OFFSET -0.013390 0.211636 -0.033468
					CHANNELS 3 Zrotation Yrotation Xrotation
					JOINT upperneck
					{
						OFFSET 0.010113 0.088937 0.050410
						CHANNELS 3 Zrotation Yrotation Xrotation
						End Site
						{
							OFFSET 0.000000 0.000000 0.000000
						}
					}
				}
				JOINT lclavicle
				{
					OFFSET 0.071702 0.114000 -0.018898
					CHANNELS 3 Zrotation Yrotation Xrotation
					JOINT lshoulder
					{
						OFFSET 0.122921 0.045205 -0.019046
						CHANNELS 3 Zrotation Yrotation Xrotation
						JOINT lelbow
						{
							OFFSET 0.255332 -0.015649 -0.022946
							CHANNELS 3 Zrotation Yrotation Xrotation
							JOINT lwrist
							{
								OFFSET 0.265709 0.012698 -0.007375
								CHANNELS 3 Zrotation Yrotation Xrotation
								End Site
								{
									OFFSET 0.000000 0.000000 0.000000
								}
							}
						}
					}
				}
				JOINT rclavicle
				{
					OFFSET -0.082954 0.112472 -0.023707
					CHANNELS 3 Zrotation Yrotation Xrotation
					JOINT rshoulder
					{
						OFFSET -0.113228 0.046853 -0.008472
						CHANNELS 3 Zrotation Yrotation Xrotation
						JOINT relbow
						{
							OFFSET -0.260127 -0.014369 -0.031269
							CHANNELS 3 Zrotation Yrotation Xrotation
							JOINT rwrist
							{
								OFFSET -0.269108 0.006794 -0.006027
								CHANNELS 3 Zrotation Yrotation Xrotation
								End Site
								{
									OFFSET 0.000000 0.000000 0.000000
								}
							}
						}
					}
				}
			}
		}
	}
}
MOTION
Frames: 14
Frame Time: 0.033333
0.816739 0.668835 0.956717 -88.756174 0.390903 84.024918 2.050961 -5.702984 -14.861945 -4.546261 -0.499500 35.512769 4.339617 15.802652 -23.981367 0.000000 -0.000000 0.000000 3.735270 3.159320 -12.493278 -0.644735 -3.319809 32.229337 -0.668649 -12.806201 -23.921671 0.000000 -0.000000 0.000000 -2.302348 3.827821 17.113266 -1.421174 -1.025935 -3.049631 -0.560797 -0.305842 5.227233 4.157246 3.179632 -18.609435 4.358414 -8.362455 -1.818426 -22.526253 -8.662848 -2.170960 -55.346460 -12.590749 14.071194 1.765535 -31.406314 12.274357 0.010558 -1.545274 -5.280641 21.213770 11.259490 -1.064834 60.301553 9.248465 21.668361 -5.197856 37.304948 15.130784 -12.521816 0.993318 -3.532321 
0.811507 0.667206 0.968200 -89.810660 0.265741 84.192689 1.304888 -5.176621 -11.576571 -3.474528 -1.001359 29.970702 4.386253 15.570800 -21.972822 0.000000 -0.000000 0.000000 4.053747 3.183538 -9.803978 -1.113791 -2.472613 27.410976 -0.090687 -12.129282 -21.587323 0.000000 -0.000000 0.000000 -2.287982 3.872007 15.484318 -1.775262 -0.757178 -2.657029 -0.670119 -0.013359 4.987636 3.993166 2.867846 -17.348603 4.433327 -8.008184 -0.835630 -22.700409 -7.969846 -2.234589 -55.374737 -12.434814 14.199081 1.970151 -30.883629 10.916383 0.033672 -2.018718 -5.251082 21.572902 10.942451 -1.046697 60.698322 8.840521 22.248813 -4.929336 37.787853 14.177520 -12.229734 1.910981 -4.089992 
0.805378 0.666510 0.979219 -90.668820 0.282389 84.357195 0.813511 -2.742796 -8.061598 -2.254769 -2.216576 24.027855 4.046659 13.825939 -19.641058 0.000000 -0.000000 0.000000 4.619265 1.883272 -6.833110 -2.085245 -1.424545 22.065641 0.780464 -10.044381 -18.977314 0.000000 -0.000000 0.000000 -2.516605 4.110731 13.395966 -1.415565 -0.629684 -1.328223 -0.960427 0.024622 3.940403 4.929659 2.902899 -14.141771 3.482287 -7.499722 -1.673775 -23.067197 -7.231521 -1.751083 -55.079808 -12.144521 13.645918 1.361213 -29.910479 11.306366 2.166040 -1.677103 -5.340435 21.991282 9.940012 -1.243262 61.474216 8.091800 22.046681 -5.387972 37.732419 13.633563 -3.414876 1.958276 -3.243101 
0.799012 0.664421 0.988621 -91.698957 -0.041811 84.776336 -0.115538 -1.897872 -4.012042 -0.791091 -2.365259 16.449709 3.169760 13.240176 -16.307510 0.000000 -0.000000 0.000000 4.702903 1.763785 -4.071661 -3.103179 -0.991557 16.645161 1.585702 -8.974124 -16.278847 0.000000 -0.000000 0.000000 -2.770832 4.028299 11.339200 -1.665802 -0.372558 -0.607212 -0.948107 0.256496 3.113142 4.776288 2.847918 -11.701044 3.655639 -7.163549 -1.405819 -23.339913 -6.187309 -1.481862 -54.811788 -11.542563 13.669823 1.013909 -28.718212 11.036934 1.321674 -1.894104 -4.766017 22.286693 9.045810 -0.854070 62.045875 7.383105 22.468342 -5.005874 37.123685 13.926503 -1.488953 1.420663 -3.313900 
0.795021 0.662330 0.994736 -91.719164 -0.134341 85.435326 -1.008503 -1.492009 -1.200671 0.883134 -2.830286 10.262235 2.465508 12.760221 -13.708938 0.000000 -0.000000 0.000000 4.865197 1.422780 -2.120602 -3.960097 -1.024013 12.005737 2.138607 -8.695170 -14.187347 0.000000 -0.000000 0.000000 -2.815459 3.682026 9.982153 -1.741212 -0.721123 -0.698564 -0.820078 0.218216 2.363037 4.458908 2.672445 -9.738209 4.008137 -6.600191 -1.304685 -23.197655 -5.233808 -0.964849 -54.894836 -11.113577 13.617717 0.359219 -27.391061 11.334866 0.192120 -2.106021 -4.512688 22.260890 7.945801 -0.624078 62.443443 6.574338 22.587725 -4.390825 36.661705 14.670756 -0.444532 1.558030 -2.893088 
0.792600 0.660407 0.996042 -91.792595 -0.219572 85.977412 -1.813837 -1.342885 0.628468 2.180060 -3.264969 5.970528 2.155884 12.798984 -12.235909 0.000000 -0.000000 0.000000 5.102862 1.487864 -1.112788 -4.769892 -1.167720 9.259256 2.308147 -8.823582 -13.356388 0.000000 -0.000000 0.000000 -2.878696 3.383747 9.067036 -1.689722 -0.944808 -0.788835 -0.695380 0.247110 2.019093 4.175807 2.683458 -8.721890 4.241342 -6.228600 -1.714792 -23.079152 -4.675281 -0.799720 -54.569675 -10.785425 13.769267 -0.752902 -26.535767 12.041059 -1.342680 -2.209689 -4.197102 22.220328 7.067402 -0.538928 62.153463 5.616693 22.605084 -4.084690 36.845458 15.381662 1.389027 1.271812 -2.438171 
0.790006 0.658832 0.993562 -91.718199 -0.157774 85.876252 -2.021238 -0.871851 2.212996 2.762694 -3.589756 3.406976 1.824582 12.542778 -11.551254 0.000000 -0.000000 0.000000 5.354531 1.467676 0.087012 -5.230463 -1.162191 7.511863 2.141149 -9.167279 -12.918678 0.000000 -0.000000 0.000000 -2.789766 3.191381 8.897037 -1.485825 -1.226817 -0.378769 -0.487897 0.042651 1.792810 3.834837 2.873311 -8.733048 4.201153 -5.916271 -2.289747 -23.454237 -4.907409 -0.464627 -53.667765 -10.444225 13.678370 -1.481979 -25.993710 12.505682 -2.150714 -2.641646 -3.342316 22.589861 6.654707 -0.602265 61.135040 4.852071 22.074004 -4.113631 37.191282 14.836651 2.692612 1.243619 -2.652228 
0.789512 0.657521 0.990559 -91.400095 -0.107250 85.707439 -1.934641 -0.528076 2.636142 2.760285 -3.873080 2.716173 1.436950 12.190646 -11.063876 0.000000 -0.000000 0.000000 5.280583 1.392291 0.463195 -5.203903 -1.412945 7.112208 2.296757 -9.473088 -12.969612 0.000000 -0.000000 0.000000 -2.764391 2.957009 9.669713 -1.251294 -1.458334 -0.776817 -0.351142 -0.152457 1.909877 3.689799 3.447068 -9.377778 4.095103 -5.707570 -2.462760 -23.966582 -5.467993 -0.197352 -52.525075 -10.392341 13.600228 -2.194253 -24.648491 13.347161 -2.067867 -3.223002 -1.917568 23.283930 6.483790 -0.639263 60.005690 4.513579 21.441426 -4.083970 36.040735 13.898176 2.756684 1.376953 -3.147909 
0.789644 0.656660 0.990156 -90.877525 -0.047297 85.550274 -1.820419 -0.568705 2.224819 2.586946 -4.058040 3.572954 1.211473 12.142587 -11.304235 0.000000 -0.000000 0.000000 5.300301 1.398679 0.660326 -5.242003 -1.425397 7.123983 2.629161 -9.994607 -13.026287 0.000000 -0.000000 0.000000 -2.744649 2.960925 10.325825 -1.048390 -1.609122 -1.067940 -0.267103 -0.371900 1.946232 3.756063 3.527835 -9.579543 4.161779 -5.691564 -2.786621 -24.341268 -6.446025 0.234610 -51.811040 -10.830386 13.364939 -2.344366 -21.655691 14.284417 -0.880286 -3.832084 0.698061 23.524920 6.707851 -0.295442 59.843080 3.927394 20.866268 -4.504784 33.197796 13.223083 0.181397 1.886027 -2.448884 
0.788612 0.655702 0.991441 -90.692052 -0.066051 85.387621 -1.903065 -0.597136 2.053051 2.485139 -4.158464 4.303002 1.351794 12.160120 -11.308100 0.000000 -0.000000 0.000000 5.110280 0.963497 1.144535 -5.077889 -1.286225 6.621302 2.675781 -9.935630 -12.793103 0.000000 -0.000000 0.000000 -2.509814 3.322583 10.104350 -1.111267 -1.761757 -0.731133 -0.416101 -0.271662 1.971178 3.878811 3.355403 -9.263955 4.518178 -6.031744 -2.980214 -24.124929 -7.446620 0.361151 -51.913496 -11.197737 13.264157 -2.224097 -18.146991 15.478381 -1.604044 -3.080402 3.023090 23.273612 7.194981 0.155340 60.533479 3.126003 20.215294 -5.382633 30.084043 13.023837 -0.803562 1.204700 -1.035955 
0.787496 0.655259 0.992179 -90.710291 -0.170666 85.052589 -2.064962 -0.514096 2.403122 2.374089 -4.332737 4.461949 1.449954 12.541568 -11.117806 0.000000 -0.000000 0.000000 4.957522 0.768707 1.996963 -5.162386 -1.337665 5.857103 2.681443 -9.713426 -12.456009 0.000000 -0.000000 0.000000 -2.285069 3.578734 10.505007 -1.280939 -1.631831 -0.909710 -0.457027 -0.165240 1.889120 3.802314 3.052625 -9.158686 4.753776 -6.398589 -2.605069 -23.855162 -7.764412 0.166145 -52.496410 -10.988350 13.198613 -1.920980 -16.579490 16.982764 -3.134007 -1.326484 4.811082 22.825073 7.240432 0.352814 61.059769 2.025773 19.761263 -5.579131 28.676321 14.206307 0.233779 -0.600498 0.339519 
0.786390 0.654915 0.991868 -90.394412 -0.223530 85.111263 -2.018098 -0.621659 2.291188 2.103180 -4.524975 4.634515 1.627665 12.564904 -11.200855 0.000000 -0.000000 0.000000 4.824256 0.446346 2.329884 -5.140505 -1.334747 5.215215 2.517527 -9.756575 -11.901064 0.000000 -0.000000 0.000000 -2.268550 3.691871 10.027112 -1.219575 -1.598322 -0.538766 -0.485165 -0.067187 1.896603 3.820801 2.832783 -9.096381 4.816707 -6.581493 -2.304969 -24.034609 -7.232870 -0.088701 -52.475390 -10.995784 13.231225 -2.337889 -16.629302 17.591668 -6.318172 0.027363 4.259131 22.914043 6.744695 0.438813 60.662422 1.351971 19.860874 -5.489738 28.238356 16.134742 4.182504 -1.985619 1.850217 
0.785908 0.654369 0.991246 -90.417748 -0.332407 85.010938 -2.213119 -0.720680 2.562663 2.150697 -4.589773 4.416717 1.570980 12.798795 -11.256573 0.000000 -0.000000 0.000000 4.740671 0.532237 2.486410 -5.251241 -1.220787 5.202313 2.506533 -9.887685 -11.769305 0.000000 -0.000000 0.000000 -2.164206 3.583763 10.223033 -1.320968 -1.337441 -0.718201 -0.483088 -0.046402 1.928812 3.756337 2.404113 -9.217338 4.701562 -6.582062 -2.061353 -24.627530 -6.284666 -0.119861 -51.808445 -10.577059 13.349198 -3.189733 -18.346898 16.978802 -6.239827 -0.654909 3.008109 23.303098 6.248995 0.362229 59.530636 0.963359 20.244086 -4.033878 28.080708 17.108487 5.858447 -2.062343 1.699065 
0.785994 0.653428 0.990518 -90.251575 -0.448933 85.025388 -2.508913 -0.762818 2.639934 2.298490 -4.761185 4.165508 1.508477 12.850262 -11.182394 0.000000 -0.000000 0.000000 4.611304 0.734355 2.327646 -5.315759 -1.291493 5.504995 2.629043 -10.158111 -11.953666 0.000000 -0.000000 0.000000 -2.032108 3.334305 10.448127 -1.439269 -1.191461 -1.015054 -0.543563 -0.015059 2.068876 3.617809 1.888407 -9.296593 4.734550 -6.305539 -2.346742 -25.090429 -5.500358 0.003695 -51.374553 -10.303061 13.415622 -3.712380 -20.472071 15.935534 -3.195133 -2.645713 2.156840 23.649899 5.838115 0.307248 58.883568 0.484497 20.326490 -3.518155 28.368258 16.641891 4.676128 -0.976029 1.872629 
